<svg
              width="60"
              height="58"
              viewBox="0 0 60 58"
              fill="none"
              xmlns="http://www.w3.org/2000/svg"
            >
              <path
                d="M54.2953 29.8957V46.7508H25.1319C25.1151 47.5626 24.9959 48.4756 24.6473 49.2129C23.4601 51.7229 18.793 50.7774 16.5956 50.9645V48.128H21.5347C22.0529 48.128 22.5729 47.2646 22.3641 46.7508H20.1909C19.1043 46.7508 17.6319 45.7747 17.1063 44.8082C16.2974 43.3163 16.2433 39.0529 16.9758 37.5401C17.4175 36.627 18.78 35.5688 19.7958 35.5688H25.1301V44.1587H33.2694L32.1996 42.5408C30.6973 39.8074 32.5164 35.5688 35.7595 35.5688H40.5402V44.0365C40.5402 44.0365 40.6502 44.1587 40.6595 44.1587H45.8764C45.8764 44.1587 45.9956 44.046 45.9956 44.0365V35.5688H48.6833V44.0365C48.6833 44.0365 48.7932 44.1587 48.8026 44.1587H51.4101C51.4101 44.1587 51.5293 44.046 51.5293 44.0365V29.8957H54.2953ZM22.2877 38.243H20.4295C20.0306 38.243 19.4659 38.8466 19.3391 39.2324C19.1341 39.8571 19.1155 42.4931 19.3242 43.1043C19.4882 43.5818 20.1741 44.1587 20.668 44.1587H22.2877V38.243ZM37.6979 38.4856H36.2348C35.9757 38.4856 35.2507 38.8542 35.0568 39.0605C34.2964 39.8723 34.6934 40.9344 35.1537 41.7806C35.6961 42.7758 36.6485 43.6831 37.696 44.0766V38.4856H37.6979Z"
                fill="#2071B9"
              />
              <path
                d="M14.2276 5.58535V19.8465H19.0885C19.0885 19.8465 19.2078 19.7338 19.2078 19.7242V11.2566H21.8954V19.7242C21.8954 19.7242 22.0054 19.8465 22.0147 19.8465H24.939C24.939 19.8465 25.0583 19.7338 25.0583 19.7242V11.2566H27.746V19.7242C27.746 19.7242 27.8559 19.8465 27.8652 19.8465H40.8263L41.8943 22.4405H14.1475C14.0524 24.108 13.182 25.9284 11.5213 26.4327C10.8056 26.6504 10.3583 26.5625 9.68358 26.5683C8.06205 26.5836 6.03606 26.7134 4.46113 26.574C2.61221 26.4097 1.46595 24.7498 1.14165 23.0078C0.69619 20.6048 1.07455 17.9153 0.945943 15.4684H3.71187V22.2342C3.71187 22.9715 4.53195 23.6687 5.21039 23.7776C6.18703 23.9342 8.66033 23.9074 9.68171 23.8158C10.3285 23.7585 10.9062 23.4605 11.1802 22.8397C11.2436 22.6964 11.4579 22.0202 11.4579 21.9075V5.57962H14.2239L14.2276 5.58535Z"
                fill="#2071B9"
              />
              <path
                d="M14.6217 35.4063V38.3231H11.0263C10.7971 38.3231 10.1485 38.6001 9.96768 38.7777C9.80367 38.9382 9.40667 39.7003 9.40667 39.9047V43.5111H14.7801V48.0897C14.7801 49.8795 13.0337 51.1631 11.4233 51.293C9.59864 51.4401 5.33793 51.4764 3.63252 51.0905C2.3558 50.8021 0.948608 49.5051 0.948608 48.0897V38.9726H3.95124V47.765C3.95124 47.786 4.09103 48.1069 4.12085 48.1585C4.35383 48.5424 4.76387 48.5882 5.17205 48.6207C6.55314 48.7258 9.52968 48.7792 10.8567 48.6073C11.2407 48.5577 11.8539 48.1967 11.8539 47.765V46.2655H6.48046V39.0948C6.48046 37.0338 8.76551 35.4082 10.6293 35.4082H14.6198L14.6217 35.4063Z"
                fill="#2071B9"
              />
              <path
                d="M58.8 29.8957H56.0341V46.7508H58.8V29.8957Z"
                fill="#2071B9"
              />
              <path
                d="M40.1474 30.4629H37.3032V33.3796H40.1474V30.4629Z"
                fill="#2071B9"
              />
              <path
                d="M48.8445 30.4629H45.9984V33.3796H48.8445V30.4629Z"
                fill="#2071B9"
              />
              <path
                d="M44.8123 30.4629H42.0464V33.3796H44.8123V30.4629Z"
                fill="#2071B9"
              />
              <path
                d="M36.2765 30.4629H33.5106V33.3796H36.2765V30.4629Z"
                fill="#2071B9"
              />
              <path
                d="M22.3667 23.9799H19.5225V26.8164H22.3667V23.9799Z"
                fill="#2071B9"
              />
              <path
                d="M18.257 23.9799H15.4128V26.8164H18.257V23.9799Z"
                fill="#2071B9"
              />
              <path
                d="M27.8195 23.9799H25.0536V26.8164H27.8195V23.9799Z"
                fill="#2071B9"
              />
              <path
                d="M44.101 13.9344C44.3265 14.2304 44.5241 15.3288 44.9211 15.3097L58.0275 11.1551C59.4217 10.4961 60.4505 12.7004 59.1999 13.411L45.7598 17.663C45.9704 17.9724 46.1531 18.788 46.3525 19.0402C46.4177 19.1223 46.483 19.1376 46.5818 19.1204C49.9068 18.1787 53.1779 16.9963 56.5085 16.0833C57.1478 15.9075 57.748 15.6229 58.404 15.8407C59.4086 16.175 59.4608 17.3631 58.6799 17.9858C54.4639 19.4967 50.1025 20.702 45.7989 21.9627C45.2081 21.9207 44.7347 21.6838 44.4812 21.1203L39.5999 10.0797C39.4899 9.94025 39.3184 9.95553 39.16 9.95744C38.1051 9.97272 36.9048 10.2535 35.8405 10.2879C34.2227 10.3395 34.1071 8.29371 35.4659 8.03775C36.9495 7.75887 38.6828 7.90022 40.1888 7.61561C40.5467 7.60797 40.9064 7.56403 41.2158 7.77606C41.8141 8.18292 42.5391 10.7368 43.0013 11.455L43.1915 11.5887L58.624 6.74267C59.9957 6.59177 60.581 8.57259 59.2502 9.17046L44.0991 13.9363L44.101 13.9344Z"
                fill="#0B8A44"
              />
              <path
                d="M52.1558 0C53.9675 2.73341 53.6562 6.58618 50.5511 8.10474C50.1112 7.47248 49.7011 6.75427 49.5148 5.99212C48.9295 3.59871 50.0031 1.07159 52.1558 0Z"
                fill="#E65025"
              />
              <path
                d="M48.8233 22.6237C51.7625 22.2092 51.8613 27.0418 48.8904 26.7266C46.5252 26.4764 46.5233 22.9484 48.8233 22.6237Z"
                fill="#0B8A44"
              />
              <path
                d="M49.8708 8.82661C47.664 10.1312 44.8776 9.36909 43.9438 6.884C46.1823 5.6787 48.9725 6.22691 49.8708 8.82661Z"
                fill="#E65025"
              />
              <path
                d="M58.1476 20.3544C60.3749 19.9705 60.5352 23.6685 58.1364 23.3247C56.5764 23.1012 56.5279 20.6333 58.1476 20.3544Z"
                fill="#0B8A44"
              />
              <path
                d="M33.1956 56.2327C33.3746 56.2652 33.3224 56.2232 33.3727 56.1296C33.5386 55.8221 33.8387 54.2023 33.9151 54.1335C33.9412 54.1106 34.5059 54.1106 34.532 54.1335C34.6122 54.2042 34.9495 55.973 35.093 56.2327C35.2142 56.2213 35.2142 56.1105 35.2459 56.0264C35.4602 55.4668 35.5869 54.7237 35.7286 54.1297L36.3567 54.1259C36.2244 54.4792 35.5534 56.8287 35.4117 56.9242C35.3316 56.9777 34.8246 56.9892 34.7836 56.9529C34.7147 56.8917 34.4015 55.4152 34.2972 55.144C34.2636 55.0599 34.2692 54.9491 34.1443 54.9358C34.0586 55.1936 33.6597 56.8841 33.5833 56.9529C33.5498 56.9834 33.0037 56.993 32.9496 56.9128L32.0103 54.1259C32.191 54.1488 32.575 54.0514 32.685 54.2042C32.8639 54.4525 33.0764 55.8469 33.1975 56.2327"
                fill="#0B8A44"
              />
              <path
                d="M30.9813 56.8803C31.1285 57.3788 31.779 56.9567 31.8535 56.9949C31.915 57.0274 32.1033 57.3406 32.0884 57.3636C31.956 57.5546 31.2254 57.652 30.9775 57.5718C30.6774 57.4763 30.4929 57.0255 30.4128 56.9777C30.3252 56.9281 30.0997 56.9682 29.9506 56.9242C28.3104 56.441 28.7391 53.6904 30.9086 54.1583C32.1983 54.4372 32.2859 56.5116 30.9831 56.8784M30.1686 54.6282C29.1547 54.867 29.4902 56.6759 30.5265 56.5422C31.7026 56.3913 31.5199 54.3092 30.1686 54.6282Z"
                fill="#0B8A44"
              />
              <path
                d="M7.31219 54.124C8.11364 54.2405 8.39135 55.0045 7.67005 55.4611C8.22733 55.7075 8.39135 56.5116 7.80425 56.8153C7.75579 56.8402 7.41471 56.9605 7.39234 56.9605H5.85095V54.124C6.30945 54.1698 6.87047 54.059 7.31406 54.124M6.40265 54.611C6.42688 54.8001 6.31132 55.2548 6.53311 55.3293C6.87606 55.4439 7.67751 55.2796 7.45385 54.7963C7.29728 54.4582 6.72136 54.6626 6.40265 54.611ZM6.40265 56.4753C7.97385 56.6931 7.97572 55.5279 6.40265 55.7457V56.4753Z"
                fill="#0B8A44"
              />
              <path
                d="M13.5153 54.1258V54.6129H12.013C12.013 54.7485 11.9664 55.3426 12.1323 55.3426H13.3569V55.7475H12.013V56.4772H13.4761C13.5973 56.4772 13.6159 56.8478 13.5954 56.9643H11.3831V54.1277H13.5171L13.5153 54.1258Z"
                fill="#0B8A44"
              />
              <path
                d="M4.33746 54.1356L5.45389 56.9607C4.57044 57.0906 4.94693 56.804 4.67295 56.4449C4.60026 56.3513 3.38131 56.3284 3.24898 56.5232C2.9955 56.8976 3.22848 57.0619 2.45312 56.9607L3.64784 54.1356H4.33932H4.33746ZM4.42692 55.9082L3.99265 54.8576C3.89573 54.8595 3.49501 55.847 3.55838 55.9082H4.42692Z"
                fill="#0B8A44"
              />
              <path
                d="M27.6521 54.1356L28.7685 56.9607C28.023 57.1001 28.2373 56.7448 28.0192 56.4736C27.9316 56.3647 26.8394 56.3513 26.6847 56.4048C26.5077 56.4678 26.5487 56.8308 26.3996 56.9225C26.2449 57.018 25.9485 56.9397 25.7659 56.9607L26.9606 54.1356H27.6521ZM27.7415 55.9082L27.3073 54.8576C27.2327 54.8576 26.8133 55.8509 26.873 55.9082H27.7415Z"
                fill="#0B8A44"
              />
              <path
                d="M18.8031 54.1336L19.9177 56.9606C19.0342 57.0905 19.4107 56.804 19.1349 56.4449C19.0622 56.3513 17.8432 56.3284 17.7109 56.5232C17.4574 56.8976 17.6904 57.0619 16.915 56.9606L18.1098 54.1355H18.8031V54.1336ZM18.8888 55.9081C18.8795 55.763 18.503 54.6933 18.3371 54.8556L18.0203 55.9081H18.8888Z"
                fill="#0B8A44"
              />
              <path
                d="M10.8296 54.1259C10.8688 54.1679 10.8278 54.613 10.7104 54.613H9.24725C9.24725 54.7486 9.20065 55.3426 9.36654 55.3426H10.6712V55.7476H9.36654C9.19693 55.7476 9.19693 56.4773 9.36654 56.4773H10.8296V56.9643H8.69556V54.1278C8.9714 54.187 10.7551 54.0495 10.8296 54.1278"
                fill="#0B8A44"
              />
              <path
                d="M38.0862 54.1356L39.2008 56.9626C38.3173 57.0925 38.6938 56.8059 38.4198 56.4468C38.3658 56.3742 37.2586 56.3609 37.1207 56.4105C36.9287 56.4774 36.8803 56.9129 36.8188 56.9511C36.7125 57.018 36.3528 56.9339 36.1981 56.9626L37.3947 54.1375H38.0862V54.1356ZM38.1738 55.9082C38.1272 55.7706 37.8178 54.7029 37.6221 54.8557C37.5774 54.8901 37.3593 55.7764 37.227 55.9082H38.1756H38.1738Z"
                fill="#0B8A44"
              />
              <path
                d="M0.889507 55.0771C1.16722 55.3579 2.18673 55.2394 2.28924 55.9538C2.41785 56.8573 1.5288 57.0484 0.837319 56.9529C0.718034 56.9376 0.0358729 56.6835 0.000460116 56.6339C-0.0144505 56.6128 0.212936 56.2843 0.158885 56.1487C0.220392 56.0895 1.60708 56.9643 1.66672 56.269C1.72637 55.5661 0.0396006 55.9405 0.173796 54.8326C0.283762 53.9157 1.73569 53.9768 2.29111 54.4047C2.21469 54.4792 2.09541 54.8479 2.01712 54.8498C1.90716 54.8517 1.43375 54.3627 0.969652 54.5862C0.762767 54.6855 0.736673 54.9185 0.891371 55.0733"
                fill="#0B8A44"
              />
              <path
                d="M44.6935 54.1259C45.0831 54.2061 45.4279 54.72 45.4167 55.1268C45.398 55.7572 44.8352 55.9348 44.8109 56.0342C44.7904 56.1201 45.3664 56.8116 45.4428 56.9625C44.8501 57.1401 44.7699 56.3379 44.4605 56.1469C44.2052 55.9902 43.8343 56.1029 43.5454 56.0704V56.9625H43.1503V54.1259C43.6032 54.189 44.2686 54.0381 44.6917 54.1259M43.5473 55.7457C45.5714 56.1201 45.5677 54.0743 43.5473 54.4487V55.7457Z"
                fill="#0B8A44"
              />
              <path
                d="M49.0786 56.9606V54.124H50.6983C50.7318 54.124 51.0673 54.2883 51.1307 54.3303C51.9657 54.8843 51.9564 56.2787 51.0599 56.7638C50.9872 56.804 50.5846 56.9606 50.5417 56.9606H49.0805H49.0786ZM49.3955 56.6378H50.5417C50.5771 56.6378 51.0804 56.336 51.1363 56.2748C51.4699 55.9157 51.4513 55.2491 51.1698 54.8594C51.0897 54.7506 50.7132 54.4488 50.6219 54.4488H49.3973V56.6359L49.3955 56.6378Z"
                fill="#0B8A44"
              />
              <path
                d="M55.6398 56.1507V54.124C55.6398 54.1087 55.9566 54.1087 55.9566 54.124V56.9606L55.595 56.8842C55.103 56.3283 54.6333 55.5012 54.1245 54.9893C54.0555 54.9205 54.0592 54.8117 53.9027 54.8518V56.9587C53.9027 56.9759 53.5858 56.9759 53.5858 56.9587V54.1221C53.7685 54.0934 53.8468 54.1317 53.9865 54.2386C54.3556 54.5194 54.9147 55.4974 55.2838 55.9062C55.3788 56.0112 55.4813 56.1679 55.6398 56.1488"
                fill="#0B8A44"
              />
              <path
                d="M48.6055 56.9606C48.0072 57.1249 48.1675 56.5232 47.9345 56.313C47.8152 56.2042 46.6149 56.187 46.4453 56.2462C46.1676 56.3436 46.2944 57.1688 45.6812 56.9625C45.9421 56.6187 46.7622 54.2807 46.943 54.166C47.0828 54.0782 47.3288 54.0935 47.4127 54.2558L48.6055 56.9625V56.9606ZM47.737 55.9081L47.1443 54.5328L46.5516 55.9081H47.737Z"
                fill="#0B8A44"
              />
              <path
                d="M26.0811 54.1259C25.973 54.2425 26.096 54.5194 26.0084 54.5748C25.7959 54.7066 25.2312 54.4755 25.1436 54.7448C25.015 55.1479 25.1585 56.4888 25.2107 56.9606H24.5788V54.6111C24.5788 54.5481 23.4512 54.8594 23.7103 54.124H26.0811V54.1259Z"
                fill="#0B8A44"
              />
              <path
                d="M59.1962 56.7178C59.1738 56.7522 58.5569 56.949 58.4451 56.9604C56.1115 57.224 56.2047 54.0302 58.2083 54.0436C58.419 54.0436 59.2558 54.2728 59.1962 54.5689C59.1011 54.6931 59.0974 54.6931 58.9557 54.6568C58.4152 54.5154 58.1729 54.1105 57.4964 54.609C56.4116 55.4113 57.4293 57.1686 58.6911 56.5631C59.1831 56.3262 58.5233 55.4266 59.1962 55.5832C59.1962 55.7628 59.226 56.6701 59.1962 56.7178Z"
                fill="#0B8A44"
              />
              <path
                d="M14.6224 54.1258V56.355C14.6224 56.355 14.7323 56.4772 14.7417 56.4772H15.8879V56.9643H14.0707V54.1277H14.6242L14.6224 54.1258Z"
                fill="#0B8A44"
              />
              <path
                d="M20.8665 54.1258V56.355C20.8665 56.5632 21.86 56.4505 22.0519 56.4753V56.9624H20.313V54.1258H20.8665Z"
                fill="#0B8A44"
              />
              <path
                d="M42.7565 54.1258C42.7118 54.6912 42.1489 54.376 41.7295 54.4505V56.9624C41.7295 56.9796 41.4127 56.9796 41.4127 56.9624V54.4505C41.053 54.3913 40.3223 54.6607 40.3857 54.1258H42.7565Z"
                fill="#0B8A44"
              />
              <path
                d="M52.7153 54.1258H52.3202V56.9624H52.7153V54.1258Z"
                fill="#0B8A44"
              />
              <path
                d="M23.474 55.5831C23.4852 55.5946 23.4852 55.8945 23.474 55.9059C23.4386 55.9441 22.4806 55.9441 22.4452 55.9059C22.434 55.8945 22.434 55.5946 22.4452 55.5831C22.4806 55.5449 23.4386 55.5449 23.474 55.5831Z"
                fill="#0B8A44"
              />
            </svg>
            