<svg width="36" height="26" viewBox="0 0 36 26" fill="none" xmlns="http://www.w3.org/2000/svg">
<path d="M29.6456 14.5795H18.5163V23.357H19.1163C19.1331 23.2945 19.16 23.2363 19.1819 23.1757C19.2006 23.1245 19.2156 23.072 19.2375 23.0226C19.2894 22.9051 19.3506 22.7926 19.4206 22.6863C19.4406 22.6557 19.4631 22.627 19.485 22.597C19.5519 22.5038 19.6238 22.4151 19.7031 22.3326C19.7413 22.2932 19.7831 22.2595 19.8238 22.2226C19.8881 22.1645 19.9538 22.1082 20.0238 22.0576C20.0725 22.0226 20.1225 21.9907 20.1738 21.9595C20.2444 21.9163 20.3163 21.877 20.3913 21.8413C20.4469 21.8145 20.5019 21.7888 20.5594 21.767C20.6394 21.7363 20.7219 21.7126 20.805 21.6907C20.8625 21.6757 20.9181 21.657 20.9775 21.6463C21.0863 21.6263 21.1988 21.617 21.3125 21.6126C21.3469 21.6113 21.3788 21.6026 21.4131 21.6026C21.4538 21.6026 21.4913 21.6126 21.5313 21.6145C21.6369 21.6201 21.7425 21.6276 21.8438 21.6463C21.9088 21.6582 21.9706 21.6782 22.0338 21.6951C22.1106 21.7157 22.1863 21.7376 22.2594 21.7651C22.3929 21.8171 22.5216 21.8809 22.6438 21.9557C22.6994 21.9895 22.7544 22.0238 22.8069 22.0626C22.8725 22.1101 22.9338 22.1632 22.9938 22.217C23.0375 22.2563 23.0831 22.2932 23.1244 22.3357C23.2019 22.4157 23.2713 22.5032 23.3369 22.5932C23.36 22.6245 23.3838 22.6545 23.405 22.6876C23.475 22.7945 23.5363 22.9076 23.5888 23.0257C23.6094 23.072 23.6231 23.1207 23.6406 23.1682C23.6638 23.2313 23.6919 23.292 23.7094 23.3576H29.6431V19.7388L29.6419 19.7313L29.6431 19.7238V16.2532L29.6419 16.2457L29.6431 16.2382V14.5807L29.6456 14.5795ZM3.90314 12.4545V18.2095H9.66314V12.4545H8.34314V14.3113C8.34314 14.4771 8.27729 14.6361 8.16008 14.7533C8.04287 14.8705 7.8839 14.9363 7.71814 14.9363H5.85001C5.68425 14.9363 5.52528 14.8705 5.40807 14.7533C5.29086 14.6361 5.22501 14.4771 5.22501 14.3113V12.4545H3.90314Z" fill="white"/>
<path d="M21.4119 22.8539C20.7894 22.8539 20.2831 23.3601 20.2831 23.9826L20.2819 23.9882C20.2838 24.6126 20.7906 25.1195 21.4138 25.1195C22.0369 25.1195 22.545 24.6114 22.5456 23.9857L22.545 23.982C22.545 23.3595 22.0369 22.8539 21.4119 22.8539ZM0.500015 25.1195H6.15876V19.4607H4.87501V21.2839C4.87501 21.4496 4.80917 21.6086 4.69196 21.7258C4.57475 21.843 4.41577 21.9089 4.25001 21.9089H2.40814C2.24238 21.9089 2.08341 21.843 1.9662 21.7258C1.84899 21.6086 1.78314 21.4496 1.78314 21.2839V19.4607H0.49939L0.500015 25.1195ZM34.3306 23.9839C34.3341 23.8328 34.3072 23.6825 34.2518 23.542C34.1963 23.4014 34.1132 23.2733 34.0076 23.1653C33.9019 23.0573 33.7757 22.9715 33.6363 22.913C33.497 22.8544 33.3474 22.8243 33.1962 22.8245C33.0451 22.8246 32.8955 22.8549 32.7563 22.9137C32.6171 22.9724 32.491 23.0585 32.3855 23.1667C32.28 23.2748 32.1972 23.403 32.1419 23.5437C32.0867 23.6844 32.0601 23.8347 32.0638 23.9857C32.071 24.2817 32.1937 24.5632 32.4056 24.7699C32.6176 24.9766 32.902 25.0922 33.1981 25.092C33.4942 25.0917 33.7784 24.9756 33.9901 24.7686C34.2017 24.5615 34.3239 24.2799 34.3306 23.9839ZM30.8956 19.1064H34.8531L33.1275 16.8701H30.8956V19.1064Z" fill="white"/>
<path d="M35.5 20.3563H30.8956V23.3595H30.9069C31.1838 22.3501 32.1006 21.602 33.1981 21.602C34.2956 21.602 35.21 22.3501 35.4862 23.3595H35.4994L35.5 20.3563ZM3.03375 19.4601H3.62563V20.6582H3.03375V19.4601ZM9.94188 19.4601H10.5338V20.6582H9.94188V19.4601ZM8.0175 7.47697V11.2045H10.2881C10.4539 11.2045 10.6129 11.2703 10.7301 11.3875C10.8473 11.5047 10.9131 11.6637 10.9131 11.8295V18.2095H13.6913C13.857 18.2095 14.016 18.2753 14.1332 18.3925C14.2504 18.5097 14.3163 18.6687 14.3163 18.8345V19.9407H17.2669V13.9545C17.2669 13.7887 17.3327 13.6297 17.4499 13.5125C17.5671 13.3953 17.7261 13.3295 17.8919 13.3295H27.9831V7.47697L18.0019 3.07947L8.0175 7.47697ZM6.475 12.4545H7.09313V13.6863H6.475V12.4545Z" fill="white"/>
<path d="M30.2744 6.25381L18.2019 0.933183C18.1824 0.927031 18.1632 0.919939 18.1444 0.911934C18.1119 0.902744 18.0798 0.892319 18.0482 0.880684L18.0494 0.852558C18.0318 0.839966 18.0147 0.82662 17.9982 0.812558L17.9825 0.826309L17.9732 0.879434C17.9407 0.884434 17.9369 0.890683 17.9038 0.890683C17.8803 0.900715 17.8563 0.909477 17.8319 0.916933L5.72129 6.25506C5.62533 6.29788 5.55019 6.37691 5.51226 6.4749C5.47433 6.5729 5.47667 6.68191 5.51879 6.77818C5.60691 6.97756 5.86316 7.06256 6.03066 6.98631L7.13004 6.50193C7.13379 6.50006 7.13691 6.49693 7.14129 6.49506L17.7488 1.82318C17.8282 1.78823 17.9139 1.77018 18.0007 1.77018C18.0874 1.77018 18.1732 1.78823 18.2525 1.82318L28.86 6.49506C28.8657 6.49756 28.8694 6.50193 28.8744 6.50443L29.9594 6.98256C30.0557 7.02405 30.1643 7.02637 30.2622 6.98902C30.3601 6.95167 30.4396 6.8776 30.4838 6.78256C30.5252 6.68482 30.5267 6.57471 30.4877 6.47593C30.4488 6.37716 30.3727 6.29762 30.2757 6.25443L30.2744 6.25381ZM18.0569 0.717558L18.0813 0.263184L17.9925 0.771308L17.9994 0.778808L18.0569 0.717558ZM7.41004 19.4594V25.1194H13.0657V19.4594H11.7838V21.2832C11.7838 21.4489 11.7179 21.6079 11.6007 21.7251C11.4835 21.8423 11.3245 21.9082 11.1588 21.9082H9.31691C9.15115 21.9082 8.99218 21.8423 8.87497 21.7251C8.75776 21.6079 8.69191 21.4489 8.69191 21.2832V19.4594H7.41004Z" fill="white"/>
</svg>
