<svg width="30" height="30" viewBox="0 0 30 30" fill="none" xmlns="http://www.w3.org/2000/svg">
<path d="M12.252 8.75C12.594 8.75 13.0354 8.70775 13.5464 8.65875C13.9617 8.619 14.4357 8.57425 14.9557 8.54225C15.7446 8.3136 16.4689 7.90302 17.0702 7.3435C17.5999 6.85024 18.0225 6.25335 18.3118 5.58988C18.6011 4.92641 18.7509 4.21055 18.7519 3.48675V2.25H17.2649C15.9362 2.24849 14.6564 2.75104 13.6837 3.65625C13.154 4.14951 12.7314 4.74641 12.4421 5.40988C12.1528 6.07334 12.003 6.7892 12.002 7.513V8.74325C12.0897 8.74725 12.1742 8.75 12.252 8.75ZM21.0019 25.75C21.0019 26.1635 21.3384 26.5 21.7519 26.5C22.1654 26.5 22.5019 26.1635 22.5019 25.75C22.5019 25.4022 22.0677 24.4855 21.7519 23.9855C21.4362 24.4855 21.0019 25.4022 21.0019 25.75ZM25.7519 21C25.4042 21 24.4874 21.4342 23.9874 21.75C24.4874 22.0657 25.4042 22.5 25.7519 22.5C26.1654 22.5 26.5019 22.1635 26.5019 21.75C26.5019 21.3365 26.1654 21 25.7519 21ZM14.138 27.364C14.138 27.2314 14.1907 27.1042 14.2845 27.0105L23.9834 17.3115C23.9947 17.1193 24.0019 16.9302 24.0019 16.75C24.0019 13.5935 22.6204 11.3683 19.7782 9.94725C19.2099 9.663 17.9247 9.5 16.252 9.5C15.849 9.5 15.4644 9.51425 15.1007 9.53525C14.5751 9.67659 14.0333 9.74879 13.489 9.75H11.502C11.4195 9.75 11.343 9.72825 11.2745 9.69275C11.142 9.68075 11.005 9.66775 10.8622 9.65425C10.6702 9.636 10.465 9.61625 10.2495 9.5975L10.2477 9.598C10.2116 9.60612 10.1747 9.61023 10.1377 9.61025C10.0727 9.61025 10.0102 9.59625 9.95195 9.57275C9.38646 9.52621 8.81935 9.50194 8.25195 9.5C6.5792 9.5 5.29395 9.663 4.7257 9.94725C1.8837 11.3683 0.501953 13.5935 0.501953 16.75C0.501953 20.6505 3.1782 26.9025 6.50145 28.8167C7.27745 29.2637 8.0557 29.5 8.75195 29.5C9.5672 29.5 10.2942 29.342 10.9355 29.2025C11.4347 29.0937 11.8657 29 12.252 29C12.6382 29 13.0692 29.0937 13.5685 29.2025C14.2097 29.342 14.9367 29.5 15.752 29.5C16.01 29.5 16.2827 29.465 16.5632 29.3997C15.7235 28.9564 14.9552 28.3893 14.2842 27.7175C14.1906 27.6236 14.138 27.4965 14.138 27.364ZM8.3712 12.25C6.76445 12.25 6.1537 12.4205 6.05795 12.451C4.1582 13.409 3.3827 14.6655 3.3827 16.7812C3.3827 16.9139 3.33002 17.041 3.23626 17.1348C3.14249 17.2286 3.01531 17.2812 2.8827 17.2812C2.75009 17.2812 2.62292 17.2286 2.52915 17.1348C2.43538 17.041 2.3827 16.9139 2.3827 16.7812C2.3827 14.284 3.3867 12.6685 5.6377 11.5428C5.6517 11.536 5.6657 11.5295 5.67995 11.524C5.8022 11.4763 6.48045 11.25 8.3712 11.25C8.50381 11.25 8.63099 11.3027 8.72475 11.3964C8.81852 11.4902 8.8712 11.6174 8.8712 11.75C8.8712 11.8826 8.81852 12.0098 8.72475 12.1036C8.63099 12.1973 8.50381 12.25 8.3712 12.25Z" fill="white"/>
<path d="M15.3554 27.3538C18.6889 30.32 23.8169 30.2058 27.0125 27.0105C30.2077 23.815 30.322 18.6873 27.3557 15.3535L15.3554 27.3538ZM21.7519 27.5C20.7869 27.5 20.0019 26.715 20.0019 25.75C20.0019 25.0753 20.9952 22.75 21.7519 22.75C22.5087 22.75 23.5019 25.0753 23.5019 25.75C23.5019 26.715 22.7169 27.5 21.7519 27.5ZM25.752 23.5C25.0772 23.5 22.7519 22.5068 22.7519 21.75C22.7519 20.9933 25.0772 20 25.752 20C26.717 20 27.5019 20.785 27.5019 21.75C27.5019 22.715 26.717 23.5 25.752 23.5ZM11.0019 8.66303V7.51303C11.0019 7.10953 10.9254 6.89128 11.0019 6.50003C10.9892 6.48478 9.5977 4.28453 8.63794 3.40553C8.6249 3.39349 8.61247 3.38081 8.6007 3.36753C8.21481 2.9304 8.00189 2.36737 8.00195 1.78428C8.00195 1.41203 7.85695 1.06228 7.59395 0.799281L7.32644 0.531781L7.29645 0.501531C7.28164 0.500365 7.26679 0.499865 7.25194 0.500031C7.21944 0.500031 7.20044 0.508531 7.02319 0.685781L5.58044 2.12853C8.9107 4.05528 10.1164 7.07153 10.5314 8.61903C10.6883 8.63333 10.8451 8.648 11.0019 8.66303Z" fill="white"/>
</svg>
