<svg width="36" height="38" viewBox="0 0 36 38" fill="none" xmlns="http://www.w3.org/2000/svg">
<path d="M0.712494 24.1C0.368744 24.1 0.0874939 24.3813 0.0874939 24.725V37.125C0.0874939 37.4688 0.368744 37.75 0.712494 37.75H35.2875C35.6312 37.75 35.9125 37.4688 35.9125 37.125V24.725C35.9125 24.3813 35.6312 24.1 35.2875 24.1H32.375V12.3625C32.5937 12.4187 32.825 12.45 33.0562 12.45H33.2C34.6937 12.45 35.9125 11.2312 35.9125 9.7375V7.11875C35.9125 7.05 35.9 6.9875 35.8812 6.925C35.8687 6.89375 35.8562 6.8625 35.8375 6.83125C35.8375 6.825 35.8375 6.81875 35.8312 6.8125L35.8062 6.76875L32.3437 0.56875C32.2895 0.472209 32.2105 0.39182 32.115 0.335813C32.0194 0.279805 31.9107 0.250191 31.8 0.25H4.19999C4.08925 0.250191 3.98054 0.279805 3.885 0.335813C3.78945 0.39182 3.71051 0.472209 3.65624 0.56875L0.193744 6.76875L0.168744 6.8125C0.162494 6.81875 0.162494 6.825 0.162494 6.83125C0.143744 6.8625 0.131244 6.89375 0.118744 6.925C0.099994 6.9875 0.0874939 7.05 0.0874939 7.11875V9.7375C0.0874939 11.2312 1.30624 12.45 2.79999 12.45H2.94374C3.16874 12.45 3.38749 12.425 3.59374 12.375V24.1H0.712494ZM34.6625 36.5H1.33749V25.35H34.6625V36.5ZM29.3937 11.1125C29.2312 11.1687 29.05 11.2 28.8875 11.2H28.7312C27.925 11.2 27.2687 10.5437 27.2687 9.7375V7.74375H30.3437V9.7375C30.3437 10.3438 29.9625 10.8937 29.3937 11.1125ZM21.7 9.7375C21.7 10.1243 21.5468 10.4953 21.2738 10.7694C21.0009 11.0435 20.6305 11.1983 20.2437 11.2H20.0812C19.6945 11.1983 19.3241 11.0435 19.0511 10.7694C18.7782 10.4953 18.625 10.1243 18.625 9.7375V7.74375H21.7V9.7375ZM13.05 9.7375C13.05 10.5437 12.3937 11.2 11.5875 11.2H11.4437C10.6375 11.2 9.98124 10.5437 9.98124 9.7375V7.74375H13.05V9.7375ZM7.03124 12.4438C7.05624 12.45 7.08749 12.45 7.11249 12.45H7.26874C8.10624 12.45 8.85624 12.0688 9.35624 11.4688C9.85624 12.0688 10.6062 12.45 11.4437 12.45H11.5875C12.425 12.45 13.175 12.0688 13.675 11.4688C14.1687 12.0688 14.9187 12.45 15.7562 12.45H15.9187C16.7562 12.45 17.5062 12.0688 18 11.4688C18.4937 12.0688 19.2437 12.45 20.0812 12.45H20.2437C21.0812 12.45 21.8312 12.0688 22.325 11.4688C22.825 12.0688 23.575 12.45 24.4125 12.45H24.5562C25.3937 12.45 26.1437 12.0688 26.6437 11.4688C27.1437 12.0688 27.8937 12.45 28.7312 12.45H28.8875C28.925 12.45 28.9562 12.45 28.9937 12.4438V24.1H18.025V20.975C18.025 20.6313 17.7437 20.35 17.4 20.35H15.7062V19.95H15.9312C16.275 19.95 16.5562 19.6688 16.5562 19.325V16.4625C16.5562 16.1188 16.275 15.8375 15.9312 15.8375H10.675C10.3312 15.8375 10.05 16.1188 10.05 16.4625V19.325C10.05 19.6688 10.3312 19.95 10.675 19.95H10.9062V20.35H9.21249C8.86874 20.35 8.58749 20.6313 8.58749 20.975V24.1H7.03124V12.4438ZM11.3 18.7V17.0875H15.3062V18.7H11.3ZM12.1562 19.95H14.4562V20.35H12.1562V19.95ZM11.5312 21.6H16.775V24.1H9.83749V21.6H11.5312ZM30.2437 24.1V12.0875C30.2937 12.0563 30.3437 12.025 30.3937 11.9875C30.5624 11.8742 30.7175 11.7421 30.8562 11.5938C30.8937 11.5562 30.9312 11.5125 30.9687 11.4688C31.0187 11.525 31.0687 11.5812 31.125 11.6375V24.1H30.2437ZM31.4312 1.5L34.225 6.49375H31.3875L29.7812 2.66875L29.2937 1.5H31.4312ZM24.425 1.5L25.8187 6.49375H22.8687L22.175 1.5H24.425ZM15.0875 1.5H17.375V6.49375H14.3937L15.0875 1.5ZM8.06249 1.5H10.275L8.88124 6.49375H5.96874L8.06249 1.5ZM2.94374 11.2H2.79999C1.99374 11.2 1.33749 10.5437 1.33749 9.7375V7.74375H4.40624V9.7375C4.40624 10.0188 4.31874 10.2938 4.16874 10.525C4.11249 10.6188 4.03749 10.7063 3.95624 10.7812C3.91874 10.8188 3.88124 10.85 3.84374 10.8813C3.83749 10.8875 3.83124 10.8938 3.82499 10.8938C3.57499 11.0938 3.27499 11.2 2.94374 11.2ZM4.84374 11.6688C4.90624 11.6 4.96874 11.5375 5.03124 11.4688C5.13749 11.5938 5.24999 11.7125 5.37499 11.8125C5.43749 11.8687 5.50624 11.9187 5.56874 11.9625C5.63749 12.0125 5.71249 12.0562 5.78124 12.1V24.1H4.84374V11.6688Z" fill="white"/>
<path d="M18 35.2375C25.0175 35.2375 30.7062 33.3068 30.7062 30.9251C30.7062 28.5433 25.0175 26.6125 18 26.6125C10.9825 26.6125 5.29373 28.5433 5.29373 30.9251C5.29373 33.3068 10.9825 35.2375 18 35.2375Z" fill="white"/>
</svg>
