<svg width="31" height="40" viewBox="0 0 31 40" fill="none" xmlns="http://www.w3.org/2000/svg">
<path d="M0 0H30.4688V4.76562H0V0ZM17.5781 25.8594C19.5166 25.8594 21.0938 24.2822 21.0938 22.3438C21.0938 20.7563 20.0296 19.4269 18.5822 18.9917C18.0752 21.1475 16.3818 22.8409 14.2261 23.3478C14.6612 24.7952 15.9906 25.8594 17.5781 25.8594ZM12.8906 21.1719C14.8291 21.1719 16.4062 19.5947 16.4062 17.6562C16.4062 15.7178 14.8291 14.1406 12.8906 14.1406C10.9522 14.1406 9.375 15.7178 9.375 17.6562C9.375 19.5947 10.9522 21.1719 12.8906 21.1719Z" fill="white"/>
<path d="M0.447422 32.8906H30.0213L28.125 29.0979V10.9021L30.0213 7.10938H0.447422L2.34375 10.9021V29.0979L0.447422 32.8906ZM12.8906 11.7969C15.7569 11.7969 18.1391 13.869 18.6423 16.5921C21.3654 17.0953 23.4375 19.4776 23.4375 22.3438C23.4375 25.5744 20.8088 28.2031 17.5781 28.2031C14.7119 28.2031 12.3297 26.131 11.8265 23.4079C9.10336 22.9047 7.03125 20.5224 7.03125 17.6562C7.03125 14.4256 9.66 11.7969 12.8906 11.7969ZM0 35.2344H30.4688V40H0V35.2344Z" fill="white"/>
</svg>
