<svg width="38" height="26" viewBox="0 0 38 26" fill="none" xmlns="http://www.w3.org/2000/svg">
<path d="M31.0563 1.09371C30.9688 1.00828 30.858 0.950774 30.7378 0.928516C30.6176 0.906257 30.4935 0.920248 30.3812 0.968708C30.15 1.06871 30 1.29371 30 1.54371V4.08121L25.8438 4.96246C23.9375 3.33746 21.525 2.43746 19 2.43746C15.35 2.43746 12.0063 4.28746 10.0563 7.38121C8.99588 9.06092 8.43451 11.0073 8.4375 12.9937V13.0062C8.4375 13.6 8.49375 14.1875 8.59375 14.7625L8 14.6375V12.1C8 11.85 7.85 11.6187 7.61875 11.525C7.39375 11.425 7.125 11.475 6.94375 11.6437L0.44375 17.825C0.31875 17.9437 0.25 18.1062 0.25 18.275C0.25 18.45 0.31875 18.6125 0.44375 18.7312L6.94375 24.9062C7.0625 25.0187 7.21875 25.0812 7.375 25.0812C7.54056 25.0806 7.69915 25.0145 7.81621 24.8974C7.93328 24.7804 7.99934 24.6218 8 24.4562V21.9187L12.1562 21.0375C14.0625 22.6625 16.475 23.5625 19 23.5625C22.65 23.5625 25.9938 21.7125 27.9438 18.6187C29 16.95 29.5625 15.0062 29.5625 13.0062V12.9937C29.5625 12.4 29.5063 11.8125 29.4062 11.2375L30 11.3625V13.9C30 14.15 30.15 14.3812 30.3812 14.475C30.4562 14.5125 30.5437 14.525 30.625 14.525C30.7812 14.525 30.9375 14.4687 31.0563 14.3562L37.5562 8.17496C37.6812 8.05621 37.75 7.89371 37.75 7.72496C37.75 7.54996 37.6812 7.38746 37.5562 7.26871L31.0563 1.09371ZM28.0875 10.9562C28.1938 11.4187 28.2437 11.8937 28.2812 12.375H24.2812C24.2599 11.6182 24.1994 10.863 24.1 10.1125L28.0875 10.9562ZM24.25 5.30621L22.8062 5.61246C22.5438 5.06246 22.2562 4.58121 21.9437 4.16871C22.7562 4.43746 23.5375 4.81871 24.25 5.30621ZM23.025 13.625C22.9812 15.05 22.8 16.425 22.475 17.6625H22.2625L15.2125 16.1687C15.075 15.3562 15.0062 14.5 14.9812 13.625H23.025ZM14.975 12.375C15.0187 10.95 15.2 9.57496 15.525 8.33746H15.7375L22.7875 9.83121C22.925 10.6437 22.9937 11.5 23.0187 12.375H14.975ZM19 3.68746C19.9125 3.68746 20.825 4.47496 21.5562 5.87496L15.9187 7.06871C16.6938 4.96246 17.8375 3.68746 19 3.68746ZM16.0563 4.16246C15.475 4.91871 14.9813 5.90621 14.5875 7.08746H11.8062C12.925 5.71246 14.4 4.70621 16.0563 4.16246ZM10.9438 8.33746H14.2437C13.9437 9.59371 13.7688 10.9625 13.7312 12.375H9.70625C9.80625 10.9437 10.225 9.56871 10.9438 8.33746ZM9.9125 15.0437C9.80625 14.5812 9.75625 14.1062 9.71875 13.625H13.7188C13.7437 14.4 13.8 15.1562 13.9 15.8875L9.9125 15.0437ZM13.75 20.6937L15.1938 20.3937C15.4563 20.9375 15.7438 21.4187 16.0563 21.8312C15.2438 21.5625 14.4688 21.1812 13.75 20.6937ZM19 22.3125C18.0875 22.3125 17.175 21.525 16.4438 20.125L21.0625 19.1437L22.0812 18.9312C21.3062 21.0375 20.1625 22.3125 19 22.3125ZM21.9437 21.8375C22.525 21.0812 23.0188 20.0937 23.4125 18.9125H26.1937C25.075 20.2875 23.6 21.2937 21.9437 21.8375ZM27.0562 17.6625H23.7563C24.0562 16.4062 24.2313 15.0375 24.2687 13.625H28.2937C28.2 15.0562 27.775 16.4312 27.0562 17.6625Z" fill="white"/>
</svg>
