<svg width="38" height="36" viewBox="0 0 38 36" fill="none" xmlns="http://www.w3.org/2000/svg">
<path d="M17.6541 29.36V28.0483C17.6541 27.9313 17.6077 27.8191 17.5249 27.7363C17.4422 27.6536 17.33 27.6071 17.213 27.6071C17.096 27.6071 16.9837 27.6536 16.901 27.7363C16.8183 27.8191 16.7718 27.9313 16.7718 28.0483V29.36L16.7724 29.363C13.7703 29.2622 10.9066 28.0767 8.71179 26.0259L8.71709 26.0224L9.64415 25.0953C9.68517 25.0544 9.71772 25.0058 9.73995 24.9522C9.76218 24.8987 9.77365 24.8414 9.7737 24.7834C9.77376 24.7254 9.76239 24.668 9.74027 24.6145C9.71814 24.5609 9.68568 24.5122 9.64474 24.4712C9.60379 24.4302 9.55517 24.3976 9.50165 24.3754C9.44813 24.3532 9.39075 24.3417 9.3328 24.3417C9.27484 24.3416 9.21745 24.353 9.16388 24.3751C9.11032 24.3972 9.06164 24.4297 9.02062 24.4706L8.09297 25.3977L8.09003 25.403C6.03899 23.2071 4.85305 20.3425 4.75179 17.3394L4.75709 17.3406H6.06826C6.18527 17.3406 6.29749 17.2941 6.38022 17.2114C6.46296 17.1287 6.50944 17.0165 6.50944 16.8995C6.50944 16.7824 6.46296 16.6702 6.38022 16.5875C6.29749 16.5048 6.18527 16.4583 6.06826 16.4583H4.7565L4.75179 16.4589C4.8521 13.4557 6.03793 10.5908 8.08944 8.39533L8.09356 8.40121L9.02062 9.32827C9.10425 9.4062 9.21487 9.44863 9.32916 9.44661C9.44345 9.44459 9.5525 9.39829 9.63334 9.31746C9.71417 9.23663 9.76047 9.12758 9.76248 9.01329C9.7645 8.89899 9.72208 8.78838 9.64415 8.70474L8.71709 7.7771C8.71532 7.77533 8.71297 7.77533 8.71121 7.77357C10.9061 5.72263 13.7701 4.53684 16.7724 4.43592V5.7518C16.7724 5.86881 16.8189 5.98102 16.9016 6.06376C16.9843 6.1465 17.0966 6.19298 17.2136 6.19298C17.3306 6.19298 17.4428 6.1465 17.5255 6.06376C17.6083 5.98102 17.6547 5.86881 17.6547 5.7518V4.44004L17.6536 4.4371C20.6564 4.53841 23.5207 5.72508 25.7153 7.7771C25.7147 7.77827 25.713 7.77886 25.7118 7.77945L24.7847 8.7071C24.7414 8.74749 24.7066 8.79619 24.6825 8.85031C24.6584 8.90443 24.6454 8.96285 24.6444 9.02208C24.6433 9.08132 24.6542 9.14016 24.6764 9.1951C24.6986 9.25003 24.7316 9.29993 24.7735 9.34182C24.8154 9.38372 24.8653 9.41675 24.9203 9.43893C24.9752 9.46112 25.034 9.47202 25.0933 9.47097C25.1525 9.46993 25.2109 9.45696 25.2651 9.43285C25.3192 9.40874 25.3679 9.37397 25.4083 9.33063L26.3359 8.40357L26.3377 8.40063C28.3875 10.5957 29.5723 13.4595 29.6724 16.4612H28.3589C28.2418 16.4612 28.1296 16.5077 28.0469 16.5904C27.9642 16.6732 27.9177 16.7854 27.9177 16.9024C27.9177 17.0194 27.9642 17.1316 28.0469 17.2143C28.1296 17.2971 28.2418 17.3436 28.3589 17.3436H29.6706L29.6753 17.3424C29.637 18.5268 29.4312 19.6998 29.0641 20.8265H33.3347C33.6406 19.5677 33.8053 18.25 33.8053 16.8971C33.8053 7.73239 26.3759 0.302979 17.2112 0.302979C8.0465 0.302979 0.617676 7.73239 0.617676 16.8971C0.617676 26.0677 8.04709 33.4971 17.2118 33.4971C18.5412 33.4971 19.8353 33.3383 21.0765 33.0383V28.7677C19.993 29.1283 18.8418 29.3265 17.653 29.3677L17.6541 29.36Z" fill="white"/>
<path d="M13.8088 20.2077C13.8916 20.2903 14.0037 20.3367 14.1206 20.3367C14.2375 20.3367 14.3496 20.2903 14.4324 20.2077L16.2977 18.3418C16.5624 18.5101 16.8747 18.6107 17.2118 18.6107C17.6653 18.6105 18.1003 18.4302 18.421 18.1094C18.7416 17.7886 18.9218 17.3536 18.9218 16.9001C18.921 16.5245 18.7964 16.1597 18.5672 15.8623C18.338 15.5648 18.0171 15.3512 17.6541 15.2548V10.9236C17.6541 10.8066 17.6076 10.6944 17.5249 10.6116C17.4422 10.5289 17.33 10.4824 17.213 10.4824C17.0959 10.4824 16.9837 10.5289 16.901 10.6116C16.8183 10.6944 16.7718 10.8066 16.7718 10.9236V15.2536C16.4081 15.3496 16.0863 15.5631 15.8566 15.8608C15.6268 16.1586 15.5018 16.5239 15.5012 16.9001C15.5012 17.1865 15.5782 17.4518 15.703 17.6895L13.8088 19.5836C13.7262 19.6663 13.6798 19.7785 13.6798 19.8954C13.6798 20.0123 13.7262 20.125 13.8088 20.2077ZM27.7094 25.5442C27.7094 25.8089 27.9971 25.9748 28.2259 25.8407L29.4965 25.0965C29.5491 25.0657 29.609 25.0495 29.67 25.0495C29.731 25.0495 29.7909 25.0657 29.8435 25.0965L31.1141 25.8407C31.1663 25.8714 31.2257 25.8878 31.2862 25.8881C31.3467 25.8885 31.4063 25.8728 31.4588 25.8427C31.5114 25.8126 31.555 25.7691 31.5852 25.7167C31.6155 25.6642 31.6314 25.6047 31.6312 25.5442V21.7089H27.7094V25.5442Z" fill="white"/>
<path d="M35.4353 21.7089H32.5118V25.5442C32.5118 26.5165 31.4489 27.0653 30.6706 26.603L29.6706 26.0206L28.6706 26.603C27.8818 27.0712 26.8295 26.5089 26.8295 25.5442V21.7089H23.9059C22.8295 21.7089 21.9589 22.5795 21.9589 23.6559V33.7559C21.9589 34.0113 22.0093 34.2642 22.1072 34.5001C22.2051 34.736 22.3486 34.9503 22.5295 35.1306C22.7104 35.311 22.9251 35.4538 23.1613 35.551C23.3975 35.6482 23.6505 35.6979 23.9059 35.6971H35.4353C35.6907 35.6979 35.9438 35.6482 36.18 35.551C36.4162 35.4538 36.6309 35.311 36.8118 35.1306C36.9926 34.9503 37.1361 34.736 37.2341 34.5001C37.332 34.2642 37.3824 34.0113 37.3824 33.7559V23.6559C37.3824 22.5795 36.5118 21.7089 35.4353 21.7089ZM26.3706 33.8547H23.9553C23.8383 33.8547 23.7261 33.8083 23.6434 33.7255C23.5606 33.6428 23.5142 33.5306 23.5142 33.4136C23.5142 33.2966 23.5606 33.1843 23.6434 33.1016C23.7261 33.0189 23.8383 32.9724 23.9553 32.9724H26.3706C26.4876 32.9724 26.5998 33.0189 26.6826 33.1016C26.7653 33.1843 26.8118 33.2966 26.8118 33.4136C26.8118 33.5306 26.7653 33.6428 26.6826 33.7255C26.5998 33.8083 26.4876 33.8547 26.3706 33.8547ZM28.3983 31.99H23.9553C23.8383 31.99 23.7261 31.9436 23.6434 31.8608C23.5606 31.7781 23.5142 31.6659 23.5142 31.5489C23.5142 31.4319 23.5606 31.3196 23.6434 31.2369C23.7261 31.1542 23.8383 31.1077 23.9553 31.1077H28.3983C28.5153 31.1077 28.6275 31.1542 28.7102 31.2369C28.793 31.3196 28.8395 31.4319 28.8395 31.5489C28.8395 31.6659 28.793 31.7781 28.7102 31.8608C28.6275 31.9436 28.5153 31.99 28.3983 31.99ZM35.8259 33.273C35.8259 33.7636 35.4277 34.1624 34.9371 34.1624H31.53C31.2943 34.1621 31.0683 34.0683 30.9017 33.9015C30.735 33.7348 30.6414 33.5087 30.6412 33.273V31.5859C30.6412 31.0953 31.04 30.6965 31.53 30.6965H34.9371C35.4277 30.6965 35.8259 31.0953 35.8259 31.5859V33.273Z" fill="white"/>
<path d="M31.53 31.5789L31.5236 33.273L34.9371 33.28L34.9436 31.5859C34.9436 31.5818 34.9406 31.5789 34.9371 31.5789H31.53Z" fill="white"/>
</svg>

